<svg width="900" height="1100" viewBox="0 0 900 1100" xmlns="http://www.w3.org/2000/svg">
  <defs>
    <radialGradient id="bgGlow" cx="58%" cy="38%" r="55%">
      <stop offset="0%" stop-color="#142a5e" stop-opacity="0.65"/>
      <stop offset="100%" stop-color="#060B18" stop-opacity="0"/>
    </radialGradient>
    <linearGradient id="handFill" x1="0%" y1="0%" x2="100%" y2="100%">
      <stop offset="0%" stop-color="#1B2A4A"/>
      <stop offset="55%" stop-color="#101B33"/>
      <stop offset="100%" stop-color="#070D1C"/>
    </linearGradient>
    <radialGradient id="sphereCore" cx="40%" cy="35%" r="60%">
      <stop offset="0%" stop-color="#EAF3FF"/>
      <stop offset="35%" stop-color="#8DB8FF"/>
      <stop offset="70%" stop-color="#2563FF"/>
      <stop offset="100%" stop-color="#13245B"/>
    </radialGradient>
    <radialGradient id="sphereGlowOuter" cx="50%" cy="50%" r="50%">
      <stop offset="0%" stop-color="#2563FF" stop-opacity="0.55"/>
      <stop offset="100%" stop-color="#2563FF" stop-opacity="0"/>
    </radialGradient>
    <linearGradient id="ringGrad" x1="0%" y1="0%" x2="100%" y2="0%">
      <stop offset="0%" stop-color="#2563FF" stop-opacity="0.15"/>
      <stop offset="50%" stop-color="#7CA8FF" stop-opacity="0.95"/>
      <stop offset="100%" stop-color="#2563FF" stop-opacity="0.15"/>
    </linearGradient>
    <filter id="blurSm" x="-60%" y="-60%" width="220%" height="220%">
      <feGaussianBlur stdDeviation="4"/>
    </filter>
    <filter id="blurMd" x="-80%" y="-80%" width="260%" height="260%">
      <feGaussianBlur stdDeviation="12"/>
    </filter>
    <filter id="blurLg" x="-100%" y="-100%" width="300%" height="300%">
      <feGaussianBlur stdDeviation="28"/>
    </filter>
  </defs>

  <rect width="900" height="1100" fill="#060B18"/>
  <rect width="900" height="1100" fill="url(#bgGlow)"/>

  <g opacity="0.55" stroke="#2563FF" stroke-width="0.4">
    <line x1="0" y1="100" x2="900" y2="100"/>
    <line x1="0" y1="220" x2="900" y2="220"/>
    <line x1="0" y1="340" x2="900" y2="340"/>
    <line x1="0" y1="460" x2="900" y2="460"/>
    <line x1="0" y1="580" x2="900" y2="580"/>
    <line x1="0" y1="700" x2="900" y2="700"/>
    <line x1="0" y1="820" x2="900" y2="820"/>
    <line x1="0" y1="940" x2="900" y2="940"/>
    <line x1="0" y1="1060" x2="900" y2="1060"/>
    <line x1="100" y1="0" x2="100" y2="1100"/>
    <line x1="220" y1="0" x2="220" y2="1100"/>
    <line x1="340" y1="0" x2="340" y2="1100"/>
    <line x1="460" y1="0" x2="460" y2="1100"/>
    <line x1="580" y1="0" x2="580" y2="1100"/>
    <line x1="700" y1="0" x2="700" y2="1100"/>
    <line x1="820" y1="0" x2="820" y2="1100"/>
  </g>

  <g opacity="0.7">
    <circle cx="120" cy="160" r="1.6" fill="#60A5FA"/>
    <circle cx="780" cy="120" r="2" fill="#60A5FA"/>
    <circle cx="830" cy="320" r="1.4" fill="#22D3A5"/>
    <circle cx="70" cy="480" r="1.8" fill="#60A5FA"/>
    <circle cx="60" cy="780" r="1.4" fill="#22D3A5"/>
    <circle cx="840" cy="700" r="1.6" fill="#60A5FA"/>
    <circle cx="780" cy="950" r="1.4" fill="#60A5FA"/>
    <circle cx="200" cy="980" r="1.8" fill="#22D3A5"/>
  </g>

  <g transform="translate(560,420)">
    <circle r="190" fill="url(#sphereGlowOuter)" filter="url(#blurLg)"/>

    <g transform="rotate(-18)">
      <ellipse rx="170" ry="60" fill="none" stroke="url(#ringGrad)" stroke-width="1.3"/>
      <circle cx="170" cy="0" r="3" fill="#EAF3FF" filter="url(#blurSm)"/>
      <circle cx="-170" cy="0" r="2" fill="#7CA8FF"/>
      <circle cx="60" cy="50" r="2.2" fill="#EAF3FF"/>
      <circle cx="-110" cy="-38" r="1.6" fill="#7CA8FF"/>
    </g>

    <g transform="rotate(22)">
      <ellipse rx="160" ry="95" fill="none" stroke="url(#ringGrad)" stroke-width="1.1" opacity="0.9"/>
      <circle cx="-150" cy="20" r="2.6" fill="#EAF3FF" filter="url(#blurSm)"/>
      <circle cx="120" cy="-62" r="1.8" fill="#7CA8FF"/>
      <circle cx="40" cy="88" r="1.6" fill="#EAF3FF"/>
    </g>

    <g transform="rotate(95)">
      <ellipse rx="175" ry="50" fill="none" stroke="url(#ringGrad)" stroke-width="0.9" opacity="0.75"/>
      <circle cx="175" cy="0" r="2" fill="#7CA8FF"/>
      <circle cx="-90" cy="20" r="1.6" fill="#EAF3FF"/>
    </g>

    <circle r="46" fill="url(#sphereCore)"/>
    <circle r="46" fill="none" stroke="#EAF3FF" stroke-width="0.6" opacity="0.5"/>
    <g opacity="0.5" stroke="#0B1A40" stroke-width="1">
      <path d="M -30 -22 Q 0 -10 30 -22" fill="none"/>
      <path d="M -32 6 Q 0 18 32 6" fill="none"/>
      <line x1="0" y1="-40" x2="0" y2="40"/>
    </g>
    <circle r="58" fill="none" stroke="#2563FF" stroke-width="1" opacity="0.35" filter="url(#blurSm)"/>
  </g>

  

  <g transform="translate(370,880) rotate(-4)">

    <path d="M -160 -20
             C -175 -55, -165 -95, -130 -110
             C -90 -128, -30 -130, 30 -128
             C 90 -126, 145 -110, 165 -75
             C 182 -45, 180 5, 160 55
             C 140 105, 95 145, 30 158
             C -40 172, -115 160, -150 120
             C -172 95, -172 35, -160 -20 Z"
          fill="url(#handFill)" stroke="#2D4170" stroke-width="1.5"/>

    <g transform="translate(-145,-15) rotate(-48)">
      <rect x="-26" y="-150" width="52" height="150" rx="26" fill="url(#handFill)" stroke="#2D4170" stroke-width="1.5"/>
    </g>

    <g transform="translate(-100,-90) rotate(-14)">
      <rect x="-25" y="-215" width="50" height="215" rx="25" fill="url(#handFill)" stroke="#2D4170" stroke-width="1.5"/>
    </g>
    <g transform="translate(-32,-104) rotate(-3)">
      <rect x="-26" y="-250" width="52" height="250" rx="26" fill="url(#handFill)" stroke="#2D4170" stroke-width="1.5"/>
    </g>
    <g transform="translate(38,-104) rotate(9)">
      <rect x="-24" y="-235" width="48" height="235" rx="24" fill="url(#handFill)" stroke="#2D4170" stroke-width="1.5"/>
    </g>
    <g transform="translate(102,-82) rotate(22)">
      <rect x="-20" y="-175" width="40" height="175" rx="20" fill="url(#handFill)" stroke="#2D4170" stroke-width="1.5"/>
    </g>

    <path d="M -160 -20
             C -175 -55, -165 -95, -130 -110
             C -90 -128, -30 -130, 30 -128
             C 90 -126, 145 -110, 165 -75
             C 182 -45, 180 5, 160 55
             C 140 105, 95 145, 30 158
             C -40 172, -115 160, -150 120
             C -172 95, -172 35, -160 -20 Z"
          fill="none" stroke="#2D4170" stroke-width="1.5" opacity="0.9"/>

    <g stroke="#3B5BA0" stroke-width="1" opacity="0.6" fill="none">
      <path d="M -130 -60 C -100 -78, -55 -80, -20 -68"/>
      <path d="M -125 -20 C -85 -32, -20 -32, 30 -18"/>
      <path d="M -110 20 C -60 10, 10 15, 70 35"/>
      <path d="M -100 -255 C -98 -220, -96 -185, -94 -155"/>
      <path d="M -32 -290 C -32 -255, -32 -220, -30 -190"/>
      <path d="M 38 -275 C 38 -240, 38 -210, 38 -180"/>
      <path d="M 102 -220 C 102 -190, 100 -165, 96 -140"/>
    </g>

    <g fill="#5B8DEF">
      <circle cx="-95" cy="-50" r="2"/>
      <circle cx="-30" cy="-55" r="1.8"/>
      <circle cx="35" cy="-52" r="1.8"/>
      <circle cx="-100" cy="-210" r="1.6"/>
      <circle cx="-32" cy="-245" r="1.8"/>
      <circle cx="38" cy="-230" r="1.6"/>
      <circle cx="100" cy="-180" r="1.8"/>
      <circle cx="-40" cy="0" r="2"/>
      <circle cx="50" cy="15" r="1.8"/>
    </g>

    <g fill="#22D3A5" opacity="0.85">
      <circle cx="-148" cy="-138" r="2.2" filter="url(#blurSm)"/>
      <circle cx="-100" cy="-265" r="1.8" filter="url(#blurSm)"/>
      <circle cx="38" cy="-305" r="2" filter="url(#blurSm)"/>
      <circle cx="102" cy="-225" r="1.8" filter="url(#blurSm)"/>
    </g>

  </g>

  <ellipse cx="450" cy="950" rx="320" ry="40" fill="#000000" opacity="0.35" filter="url(#blurLg)"/>

</svg>
